<mxfile host="Electron" agent="Mozilla/5.0 (Windows NT 10.0; Win64; x64) AppleWebKit/537.36 (KHTML, like Gecko) draw.io/28.0.4 Chrome/138.0.7204.97 Electron/37.2.1 Safari/537.36" version="28.0.4">
  <diagram name="Page-1" id="eiFZcO0zlXpd6m1t2y3F">
    <mxGraphModel dx="1512" dy="777" grid="1" gridSize="10" guides="1" tooltips="1" connect="1" arrows="1" fold="1" page="1" pageScale="1" pageWidth="1100" pageHeight="850" math="0" shadow="0">
      <root>
        <mxCell id="0" />
        <mxCell id="1" parent="0" />
        <mxCell id="lljosVom0dEAznZdWIi4-1" style="edgeStyle=none;curved=1;rounded=0;orthogonalLoop=1;jettySize=auto;html=1;exitX=0.5;exitY=1;exitDx=0;exitDy=0;fontFamily=Architects Daughter;fontSource=https://fonts.googleapis.com/css?family=Architects+Daughter;fontSize=16;startSize=14;endArrow=none;endSize=14;sourcePerimeterSpacing=8;targetPerimeterSpacing=8;endFill=0;dashed=1;" parent="1" source="lljosVom0dEAznZdWIi4-2" edge="1">
          <mxGeometry relative="1" as="geometry">
            <mxPoint x="100" y="610" as="targetPoint" />
          </mxGeometry>
        </mxCell>
        <mxCell id="lljosVom0dEAznZdWIi4-2" value="" style="rounded=0;whiteSpace=wrap;html=1;fontFamily=Architects Daughter;fontSource=https://fonts.googleapis.com/css?family=Architects+Daughter;" parent="1" vertex="1">
          <mxGeometry x="90" y="240" width="20" height="150" as="geometry" />
        </mxCell>
        <mxCell id="lljosVom0dEAznZdWIi4-3" value="" style="endArrow=none;dashed=1;html=1;rounded=0;fontFamily=Architects Daughter;fontSource=https://fonts.googleapis.com/css?family=Architects+Daughter;fontSize=16;startSize=14;endSize=14;sourcePerimeterSpacing=8;targetPerimeterSpacing=8;curved=1;exitX=0.5;exitY=0;exitDx=0;exitDy=0;" parent="1" source="lljosVom0dEAznZdWIi4-2" edge="1">
          <mxGeometry width="50" height="50" relative="1" as="geometry">
            <mxPoint x="90" y="160" as="sourcePoint" />
            <mxPoint x="100" y="130" as="targetPoint" />
          </mxGeometry>
        </mxCell>
        <mxCell id="lljosVom0dEAznZdWIi4-4" value="" style="endArrow=blockThin;html=1;rounded=0;fontFamily=Architects Daughter;fontSource=https://fonts.googleapis.com/css?family=Architects+Daughter;fontSize=16;startSize=14;endSize=14;sourcePerimeterSpacing=8;targetPerimeterSpacing=8;curved=1;endFill=1;entryX=-0.02;entryY=0.078;entryDx=0;entryDy=0;entryPerimeter=0;" parent="1" target="lljosVom0dEAznZdWIi4-12" edge="1">
          <mxGeometry width="50" height="50" relative="1" as="geometry">
            <mxPoint x="100" y="198" as="sourcePoint" />
            <mxPoint x="300" y="240" as="targetPoint" />
          </mxGeometry>
        </mxCell>
        <mxCell id="lljosVom0dEAznZdWIi4-5" value="Gửi yêu cầu chạy Scheduler" style="edgeLabel;html=1;align=center;verticalAlign=middle;resizable=0;points=[];fontSize=16;fontFamily=Architects Daughter;fontSource=https://fonts.googleapis.com/css?family=Architects+Daughter;" parent="lljosVom0dEAznZdWIi4-4" vertex="1" connectable="0">
          <mxGeometry x="-0.1051" y="-1" relative="1" as="geometry">
            <mxPoint as="offset" />
          </mxGeometry>
        </mxCell>
        <mxCell id="lljosVom0dEAznZdWIi4-6" style="edgeStyle=none;curved=1;rounded=0;orthogonalLoop=1;jettySize=auto;html=1;exitX=0.5;exitY=0;exitDx=0;exitDy=0;fontFamily=Architects Daughter;fontSource=https://fonts.googleapis.com/css?family=Architects+Daughter;fontSize=16;startSize=14;endArrow=none;endSize=14;sourcePerimeterSpacing=8;targetPerimeterSpacing=8;endFill=0;dashed=1;" parent="1" source="lljosVom0dEAznZdWIi4-12" edge="1">
          <mxGeometry relative="1" as="geometry">
            <mxPoint x="437" y="130" as="targetPoint" />
          </mxGeometry>
        </mxCell>
        <mxCell id="lljosVom0dEAznZdWIi4-7" style="edgeStyle=none;curved=1;rounded=0;orthogonalLoop=1;jettySize=auto;html=1;fontFamily=Architects Daughter;fontSource=https://fonts.googleapis.com/css?family=Architects+Daughter;fontSize=16;startSize=14;endArrow=blockThin;endSize=14;sourcePerimeterSpacing=8;targetPerimeterSpacing=8;endFill=1;entryX=0;entryY=0.25;entryDx=0;entryDy=0;" parent="1" edge="1" target="iwHcd4OHuEL2AT6Q89C9-13">
          <mxGeometry relative="1" as="geometry">
            <mxPoint x="720" y="380" as="targetPoint" />
            <mxPoint x="449" y="385" as="sourcePoint" />
          </mxGeometry>
        </mxCell>
        <mxCell id="lljosVom0dEAznZdWIi4-8" value="Chạy" style="edgeLabel;html=1;align=center;verticalAlign=middle;resizable=0;points=[];fontSize=16;fontFamily=Architects Daughter;fontSource=https://fonts.googleapis.com/css?family=Architects+Daughter;" parent="lljosVom0dEAznZdWIi4-7" vertex="1" connectable="0">
          <mxGeometry x="0.0091" y="1" relative="1" as="geometry">
            <mxPoint as="offset" />
          </mxGeometry>
        </mxCell>
        <mxCell id="lljosVom0dEAznZdWIi4-9" style="edgeStyle=none;curved=1;rounded=0;orthogonalLoop=1;jettySize=auto;html=1;exitX=0.5;exitY=1;exitDx=0;exitDy=0;fontFamily=Architects Daughter;fontSource=https://fonts.googleapis.com/css?family=Architects+Daughter;fontSize=16;startSize=14;endArrow=none;endSize=14;sourcePerimeterSpacing=8;targetPerimeterSpacing=8;endFill=0;dashed=1;entryX=0.5;entryY=0;entryDx=0;entryDy=0;" parent="1" source="lljosVom0dEAznZdWIi4-12" target="lljosVom0dEAznZdWIi4-21" edge="1">
          <mxGeometry relative="1" as="geometry">
            <mxPoint x="437" y="370" as="targetPoint" />
          </mxGeometry>
        </mxCell>
        <mxCell id="lljosVom0dEAznZdWIi4-10" style="edgeStyle=none;curved=1;rounded=0;orthogonalLoop=1;jettySize=auto;html=1;exitX=0;exitY=0.5;exitDx=0;exitDy=0;entryX=1;entryY=0;entryDx=0;entryDy=0;fontFamily=Architects Daughter;fontSource=https://fonts.googleapis.com/css?family=Architects+Daughter;fontSize=16;startSize=14;endArrow=blockThin;endSize=14;sourcePerimeterSpacing=8;targetPerimeterSpacing=8;endFill=1;" parent="1" source="lljosVom0dEAznZdWIi4-12" target="lljosVom0dEAznZdWIi4-2" edge="1">
          <mxGeometry relative="1" as="geometry" />
        </mxCell>
        <mxCell id="lljosVom0dEAznZdWIi4-11" value="Yêu cầu quyền truy cập" style="edgeLabel;html=1;align=center;verticalAlign=middle;resizable=0;points=[];fontSize=16;fontFamily=Architects Daughter;fontSource=https://fonts.googleapis.com/css?family=Architects+Daughter;" parent="lljosVom0dEAznZdWIi4-10" vertex="1" connectable="0">
          <mxGeometry x="0.0191" y="-1" relative="1" as="geometry">
            <mxPoint as="offset" />
          </mxGeometry>
        </mxCell>
        <mxCell id="lljosVom0dEAznZdWIi4-12" value="" style="rounded=0;whiteSpace=wrap;html=1;fontFamily=Architects Daughter;fontSource=https://fonts.googleapis.com/css?family=Architects+Daughter;" parent="1" vertex="1">
          <mxGeometry x="427" y="190" width="20" height="100" as="geometry" />
        </mxCell>
        <mxCell id="lljosVom0dEAznZdWIi4-13" value="Server AI" style="rounded=0;whiteSpace=wrap;html=1;fontFamily=Architects Daughter;fontSource=https://fonts.googleapis.com/css?family=Architects+Daughter;" parent="1" vertex="1">
          <mxGeometry x="367" y="40" width="123" height="80" as="geometry" />
        </mxCell>
        <mxCell id="lljosVom0dEAznZdWIi4-14" value="Scheduler" style="rounded=0;whiteSpace=wrap;html=1;fontFamily=Architects Daughter;fontSource=https://fonts.googleapis.com/css?family=Architects+Daughter;" parent="1" vertex="1">
          <mxGeometry x="660.5" y="40" width="113" height="80" as="geometry" />
        </mxCell>
        <mxCell id="lljosVom0dEAznZdWIi4-15" style="edgeStyle=none;curved=1;rounded=0;orthogonalLoop=1;jettySize=auto;html=1;fontFamily=Architects Daughter;fontSource=https://fonts.googleapis.com/css?family=Architects+Daughter;fontSize=16;startSize=14;endArrow=none;endSize=14;sourcePerimeterSpacing=8;targetPerimeterSpacing=8;endFill=0;dashed=1;exitX=0.5;exitY=0;exitDx=0;exitDy=0;" parent="1" source="iwHcd4OHuEL2AT6Q89C9-13" edge="1">
          <mxGeometry relative="1" as="geometry">
            <mxPoint x="717" y="130" as="targetPoint" />
            <mxPoint x="717" y="360" as="sourcePoint" />
          </mxGeometry>
        </mxCell>
        <mxCell id="lljosVom0dEAznZdWIi4-16" value="Trả về kết quả" style="edgeStyle=none;curved=1;rounded=0;orthogonalLoop=1;jettySize=auto;html=1;fontFamily=Architects Daughter;fontSource=https://fonts.googleapis.com/css?family=Architects+Daughter;fontSize=16;startSize=14;endArrow=blockThin;endSize=14;sourcePerimeterSpacing=8;targetPerimeterSpacing=8;endFill=1;" parent="1" edge="1">
          <mxGeometry relative="1" as="geometry">
            <mxPoint x="440" y="540" as="targetPoint" />
            <mxPoint x="720" y="538" as="sourcePoint" />
          </mxGeometry>
        </mxCell>
        <mxCell id="lljosVom0dEAznZdWIi4-19" value="Người dùng" style="rounded=0;whiteSpace=wrap;html=1;fontFamily=Architects Daughter;fontSource=https://fonts.googleapis.com/css?family=Architects+Daughter;" parent="1" vertex="1">
          <mxGeometry x="40" y="40" width="120" height="80" as="geometry" />
        </mxCell>
        <mxCell id="lljosVom0dEAznZdWIi4-20" style="edgeStyle=none;curved=1;rounded=0;orthogonalLoop=1;jettySize=auto;html=1;exitX=0.5;exitY=1;exitDx=0;exitDy=0;fontFamily=Architects Daughter;fontSource=https://fonts.googleapis.com/css?family=Architects+Daughter;fontSize=16;startSize=14;endArrow=none;endSize=14;sourcePerimeterSpacing=8;targetPerimeterSpacing=8;endFill=0;dashed=1;" parent="1" source="lljosVom0dEAznZdWIi4-21" edge="1">
          <mxGeometry relative="1" as="geometry">
            <mxPoint x="437" y="610" as="targetPoint" />
          </mxGeometry>
        </mxCell>
        <mxCell id="lljosVom0dEAznZdWIi4-21" value="" style="rounded=0;whiteSpace=wrap;html=1;fontFamily=Architects Daughter;fontSource=https://fonts.googleapis.com/css?family=Architects+Daughter;" parent="1" vertex="1">
          <mxGeometry x="427" y="370" width="20" height="100" as="geometry" />
        </mxCell>
        <mxCell id="lljosVom0dEAznZdWIi4-22" style="edgeStyle=none;curved=1;rounded=0;orthogonalLoop=1;jettySize=auto;html=1;fontFamily=Architects Daughter;fontSource=https://fonts.googleapis.com/css?family=Architects+Daughter;fontSize=16;startSize=14;endArrow=blockThin;endSize=14;sourcePerimeterSpacing=8;targetPerimeterSpacing=8;exitX=1;exitY=0.929;exitDx=0;exitDy=0;exitPerimeter=0;endFill=1;" parent="1" source="lljosVom0dEAznZdWIi4-2" edge="1">
          <mxGeometry relative="1" as="geometry">
            <mxPoint x="113" y="381" as="sourcePoint" />
            <mxPoint x="427" y="380" as="targetPoint" />
          </mxGeometry>
        </mxCell>
        <mxCell id="lljosVom0dEAznZdWIi4-23" value="Đã có quyền truy cập" style="edgeLabel;html=1;align=center;verticalAlign=middle;resizable=0;points=[];fontSize=16;fontFamily=Architects Daughter;fontSource=https://fonts.googleapis.com/css?family=Architects+Daughter;" parent="lljosVom0dEAznZdWIi4-22" vertex="1" connectable="0">
          <mxGeometry x="0.0695" y="-1" relative="1" as="geometry">
            <mxPoint as="offset" />
          </mxGeometry>
        </mxCell>
        <mxCell id="lljosVom0dEAznZdWIi4-24" value="" style="edgeStyle=none;orthogonalLoop=1;jettySize=auto;html=1;rounded=0;fontFamily=Architects Daughter;fontSource=https://fonts.googleapis.com/css?family=Architects+Daughter;fontSize=16;startSize=14;endArrow=blockThin;endSize=14;sourcePerimeterSpacing=8;targetPerimeterSpacing=8;curved=1;endFill=1;" parent="1" edge="1">
          <mxGeometry width="140" relative="1" as="geometry">
            <mxPoint x="440" y="560" as="sourcePoint" />
            <mxPoint x="100" y="560" as="targetPoint" />
            <Array as="points" />
          </mxGeometry>
        </mxCell>
        <mxCell id="lljosVom0dEAznZdWIi4-25" value="Trả về thông báo" style="edgeLabel;html=1;align=center;verticalAlign=middle;resizable=0;points=[];fontSize=16;fontFamily=Architects Daughter;fontSource=https://fonts.googleapis.com/css?family=Architects+Daughter;" parent="lljosVom0dEAznZdWIi4-24" vertex="1" connectable="0">
          <mxGeometry x="0.1042" y="-3" relative="1" as="geometry">
            <mxPoint as="offset" />
          </mxGeometry>
        </mxCell>
        <mxCell id="iwHcd4OHuEL2AT6Q89C9-1" value="Task" style="rounded=0;whiteSpace=wrap;html=1;fontFamily=Architects Daughter;fontSource=https://fonts.googleapis.com/css?family=Architects+Daughter;" vertex="1" parent="1">
          <mxGeometry x="960" y="40" width="113" height="80" as="geometry" />
        </mxCell>
        <mxCell id="iwHcd4OHuEL2AT6Q89C9-2" style="edgeStyle=none;curved=1;rounded=0;orthogonalLoop=1;jettySize=auto;html=1;fontFamily=Architects Daughter;fontSource=https://fonts.googleapis.com/css?family=Architects+Daughter;fontSize=16;startSize=14;endArrow=none;endSize=14;sourcePerimeterSpacing=8;targetPerimeterSpacing=8;endFill=0;dashed=1;exitX=0.5;exitY=0;exitDx=0;exitDy=0;" edge="1" parent="1" source="iwHcd4OHuEL2AT6Q89C9-12">
          <mxGeometry relative="1" as="geometry">
            <mxPoint x="1016" y="130" as="targetPoint" />
            <mxPoint x="1016" y="360" as="sourcePoint" />
          </mxGeometry>
        </mxCell>
        <mxCell id="iwHcd4OHuEL2AT6Q89C9-6" style="edgeStyle=none;curved=1;rounded=0;orthogonalLoop=1;jettySize=auto;html=1;exitX=1.11;exitY=0.11;exitDx=0;exitDy=0;fontFamily=Architects Daughter;fontSource=https://fonts.googleapis.com/css?family=Architects+Daughter;fontSize=16;startSize=14;endArrow=blockThin;endSize=14;sourcePerimeterSpacing=8;targetPerimeterSpacing=8;endFill=1;exitPerimeter=0;" edge="1" parent="1">
          <mxGeometry relative="1" as="geometry">
            <mxPoint x="1020" y="410" as="targetPoint" />
            <mxPoint x="720" y="411" as="sourcePoint" />
          </mxGeometry>
        </mxCell>
        <mxCell id="iwHcd4OHuEL2AT6Q89C9-7" value="Chạy" style="edgeLabel;html=1;align=center;verticalAlign=middle;resizable=0;points=[];fontSize=16;fontFamily=Architects Daughter;fontSource=https://fonts.googleapis.com/css?family=Architects+Daughter;" vertex="1" connectable="0" parent="iwHcd4OHuEL2AT6Q89C9-6">
          <mxGeometry x="0.0091" y="1" relative="1" as="geometry">
            <mxPoint as="offset" />
          </mxGeometry>
        </mxCell>
        <mxCell id="iwHcd4OHuEL2AT6Q89C9-11" value="Trả về kết quả" style="edgeStyle=none;curved=1;rounded=0;orthogonalLoop=1;jettySize=auto;html=1;fontFamily=Architects Daughter;fontSource=https://fonts.googleapis.com/css?family=Architects+Daughter;fontSize=16;startSize=14;endArrow=blockThin;endSize=14;sourcePerimeterSpacing=8;targetPerimeterSpacing=8;endFill=1;exitX=0.175;exitY=0.4;exitDx=0;exitDy=0;exitPerimeter=0;" edge="1" parent="1" source="iwHcd4OHuEL2AT6Q89C9-12">
          <mxGeometry relative="1" as="geometry">
            <mxPoint x="720" y="512" as="targetPoint" />
            <mxPoint x="1000" y="510" as="sourcePoint" />
          </mxGeometry>
        </mxCell>
        <mxCell id="iwHcd4OHuEL2AT6Q89C9-12" value="" style="rounded=0;whiteSpace=wrap;html=1;fontFamily=Architects Daughter;fontSource=https://fonts.googleapis.com/css?family=Architects+Daughter;" vertex="1" parent="1">
          <mxGeometry x="1006.5" y="470" width="20" height="100" as="geometry" />
        </mxCell>
        <mxCell id="iwHcd4OHuEL2AT6Q89C9-13" value="" style="rounded=0;whiteSpace=wrap;html=1;fontFamily=Architects Daughter;fontSource=https://fonts.googleapis.com/css?family=Architects+Daughter;" vertex="1" parent="1">
          <mxGeometry x="707" y="360" width="20" height="100" as="geometry" />
        </mxCell>
        <mxCell id="iwHcd4OHuEL2AT6Q89C9-17" style="edgeStyle=none;curved=1;rounded=0;orthogonalLoop=1;jettySize=auto;html=1;exitX=0.5;exitY=1;exitDx=0;exitDy=0;fontFamily=Architects Daughter;fontSource=https://fonts.googleapis.com/css?family=Architects+Daughter;fontSize=16;startSize=14;endArrow=none;endSize=14;sourcePerimeterSpacing=8;targetPerimeterSpacing=8;endFill=0;dashed=1;" edge="1" parent="1" source="iwHcd4OHuEL2AT6Q89C9-13">
          <mxGeometry relative="1" as="geometry">
            <mxPoint x="717" y="620" as="targetPoint" />
            <mxPoint x="716.5" y="470" as="sourcePoint" />
          </mxGeometry>
        </mxCell>
        <mxCell id="iwHcd4OHuEL2AT6Q89C9-18" style="edgeStyle=none;curved=1;rounded=0;orthogonalLoop=1;jettySize=auto;html=1;exitX=0.5;exitY=1;exitDx=0;exitDy=0;fontFamily=Architects Daughter;fontSource=https://fonts.googleapis.com/css?family=Architects+Daughter;fontSize=16;startSize=14;endArrow=none;endSize=14;sourcePerimeterSpacing=8;targetPerimeterSpacing=8;endFill=0;dashed=1;" edge="1" parent="1" source="iwHcd4OHuEL2AT6Q89C9-12">
          <mxGeometry relative="1" as="geometry">
            <mxPoint x="1016" y="620" as="targetPoint" />
            <mxPoint x="1016.5" y="470" as="sourcePoint" />
          </mxGeometry>
        </mxCell>
        <mxCell id="iwHcd4OHuEL2AT6Q89C9-19" value="loop" style="shape=umlFrame;whiteSpace=wrap;html=1;pointerEvents=0;fontFamily=Architects Daughter;fontSource=https%3A%2F%2Ffonts.googleapis.com%2Fcss%3Ffamily%3DArchitects%2BDaughter;" vertex="1" parent="1">
          <mxGeometry x="660" y="310" width="400" height="280" as="geometry" />
        </mxCell>
        <mxCell id="iwHcd4OHuEL2AT6Q89C9-20" value="[ mỗi task ]" style="text;strokeColor=none;fillColor=none;html=1;align=center;verticalAlign=middle;whiteSpace=wrap;rounded=0;fontSize=20;fontFamily=Architects Daughter;fontSource=https%3A%2F%2Ffonts.googleapis.com%2Fcss%3Ffamily%3DArchitects%2BDaughter;" vertex="1" parent="1">
          <mxGeometry x="727" y="320" width="143" height="30" as="geometry" />
        </mxCell>
      </root>
    </mxGraphModel>
  </diagram>
</mxfile>
